<?xml version="1.0" encoding="UTF-8"?>
<svg width="1440px" height="647px" viewBox="0 0 1440 647" version="1.1" xmlns="http://www.w3.org/2000/svg" xmlns:xlink="http://www.w3.org/1999/xlink">
    <!-- Generator: Sketch 43.2 (39069) - http://www.bohemiancoding.com/sketch -->
    <title>Group</title>
    <desc>Created with Sketch.</desc>
    <defs></defs>
    <g id="backgrounds" stroke="none" stroke-width="1" fill="none" fill-rule="evenodd" opacity="0.04">
        <g id="Desktop-HD-Copy" transform="translate(0.000000, -377.000000)" fill="#3498DB">
            <g id="Group" transform="translate(-199.000000, 377.000000)">
                <circle id="Oval" cx="195" cy="195" r="195"></circle>
                <circle id="Oval-Copy-5" cx="1542.5" cy="500.5" r="217.5"></circle>
                <path d="M103.561475,411.472652 C97.1893456,433.797176 93.7774731,457.370203 93.7774731,481.740115 C93.7774731,622.848868 208.16872,737.240115 349.277473,737.240115 C490.386227,737.240115 604.777473,622.848868 604.777473,481.740115 C604.777473,346.497992 499.70019,235.797984 366.732522,226.82699 C352.066512,333.81823 260.297324,416.240115 149.277473,416.240115 C133.600662,416.240115 118.307699,414.596664 103.561475,411.472652 Z" id="Combined-Shape" transform="translate(349.277473, 482.033552) rotate(9.000000) translate(-349.277473, -482.033552) "></path>
                <path d="M844.092668,658.153601 C805.75561,709.48318 743.320913,741.337525 674.540331,737.732887 C609.623759,734.330754 553.630846,700.105739 520,649.982708 C563.270324,614.499676 595.234495,564.625721 607.773734,505.633242 C618.389225,455.691282 613.628333,406.057041 596.690064,361.656555 C626.281536,346.940919 659.961185,339.424005 695.317705,341.276962 C720.289455,342.585676 743.940732,348.45539 765.506593,358.03655 C746.02971,390.624536 734.837098,428.73502 734.837098,469.459678 C734.837098,550.173897 778.803065,620.619315 844.092668,658.153601 Z" id="Combined-Shape"></path>
                <path d="M1171.3424,444.51523 C1150.6203,345.978462 1063.19945,272 958.5,272 C838.378067,272 741,369.378067 741,489.5 C741,609.621933 838.378067,707 958.5,707 C1002.49158,707 1043.43274,693.939626 1077.6576,671.48477 C1074.60519,656.970061 1073,641.922486 1073,626.5 C1073,550.369648 1112.114,483.374859 1171.34239,444.515234 Z" id="Combined-Shape-Copy-2"></path>
                <path d="M1318.36296,437.284111 C1306.06672,435.125622 1293.41481,434 1280.5,434 C1160.37807,434 1063,531.378067 1063,651.5 C1063,771.621933 1160.37807,869 1280.5,869 C1384.05189,869 1470.70187,796.634333 1492.63705,699.715892 C1390.56465,681.798063 1313,592.707129 1313,485.5 C1313,468.929955 1314.85295,452.79269 1318.36295,437.284108 Z" id="Combined-Shape"></path>
                <path d="M1509.56522,288.236838 C1503.42517,274.931417 1500,260.115705 1500,244.5 C1500,186.786244 1546.78624,140 1604.5,140 C1662.21376,140 1709,186.786244 1709,244.5 C1709,275.080551 1695.86439,302.593116 1674.92767,321.703208 C1640.05407,297.911002 1597.90158,284 1552.5,284 C1537.80234,284 1523.44517,285.457851 1509.56522,288.236838 Z" id="Combined-Shape" transform="translate(1604.500000, 230.851604) rotate(5.000000) translate(-1604.500000, -230.851604) "></path>
            </g>
        </g>
    </g>
</svg>